<?xml version="1.0" encoding="UTF-8" standalone="no"?>
<svg
   xmlns:dc="http://purl.org/dc/elements/1.1/"
   xmlns:cc="http://creativecommons.org/ns#"
   xmlns:rdf="http://www.w3.org/1999/02/22-rdf-syntax-ns#"
   xmlns:svg="http://www.w3.org/2000/svg"
   xmlns="http://www.w3.org/2000/svg"
   xmlns:sodipodi="http://sodipodi.sourceforge.net/DTD/sodipodi-0.dtd"
   xmlns:inkscape="http://www.inkscape.org/namespaces/inkscape"
   width="128"
   height="128"
   viewBox="0 0 33.866667 33.866668"
   version="1.1"
   id="svg8"
   inkscape:version="1.0.2-2 (e86c870879, 2021-01-15)"
   sodipodi:docname="juicer_icon.svg"
   inkscape:export-filename="D:\Juicer\img\juicer_icon.png"
   inkscape:export-xdpi="96"
   inkscape:export-ydpi="96">
  <defs
     id="defs2" />
  <sodipodi:namedview
     id="base"
     pagecolor="#ffffff"
     bordercolor="#666666"
     borderopacity="1.0"
     inkscape:pageopacity="0.0"
     inkscape:pageshadow="2"
     inkscape:zoom="1.4"
     inkscape:cx="-194.51743"
     inkscape:cy="208.08761"
     inkscape:document-units="mm"
     inkscape:current-layer="layer1"
     inkscape:document-rotation="0"
     showgrid="false"
     units="px"
     inkscape:window-width="2560"
     inkscape:window-height="1377"
     inkscape:window-x="-8"
     inkscape:window-y="-8"
     inkscape:window-maximized="1" />
  <metadata
     id="metadata5">
    <rdf:RDF>
      <cc:Work
         rdf:about="">
        <dc:format>image/svg+xml</dc:format>
        <dc:type
           rdf:resource="http://purl.org/dc/dcmitype/StillImage" />
        <dc:title />
      </cc:Work>
    </rdf:RDF>
  </metadata>
  <g
     inkscape:label="图层 1"
     inkscape:groupmode="layer"
     id="layer1">
    <ellipse
       style="fill:#f49900;fill-opacity:1;stroke:none;stroke-width:0.682652;stroke-miterlimit:4;stroke-dasharray:none;stroke-opacity:1"
       id="path831"
       cx="17.249359"
       cy="17.672213"
       rx="16.724306"
       ry="16.27853" />
    <path
       style="fill:#00517a;fill-opacity:1;stroke:none;stroke-width:0.978629;stroke-miterlimit:4;stroke-dasharray:none;stroke-opacity:1"
       d="M 9.5268538,66.440988 C 9.2283891,66.256598 9.2046685,66.174697 9.1261437,65.057626 9.0553375,64.050297 9.0096296,63.415489 8.7991086,60.515639 8.6982379,59.126167 8.6978553,59.07616 8.7869765,58.9237 c 0.050621,-0.08657 0.1562785,-0.205426 0.234851,-0.264118 0.1399598,-0.104546 0.1863671,-0.106713 2.2859715,-0.106713 2.099603,0 2.14601,0.0021 2.285972,0.106713 0.07857,0.05868 0.185337,0.17939 0.237242,0.268218 0.09257,0.158397 0.09179,0.197824 -0.0404,2.048295 -0.07414,1.037733 -0.144146,1.989468 -0.155579,2.114964 -0.01141,0.125498 -0.05792,0.798622 -0.103267,1.495828 -0.04535,0.69721 -0.10285,1.348601 -0.127748,1.447538 -0.02493,0.09894 -0.115405,0.247253 -0.201131,0.329589 l -0.155866,0.149704 -1.679219,0.01358 c -1.5952982,0.0129 -1.687294,0.0086 -1.8409191,-0.08632 z m 0.7987072,-0.80195 c 0.0054,-0.30094 0.0067,-0.244678 -0.0548,-2.928273 -0.02815,-1.227087 -0.06475,-2.510583 -0.08139,-2.852215 l -0.03024,-0.621149 H 9.764227 9.3693321 l 0.021097,0.190148 c 0.011594,0.104581 0.1124113,1.524984 0.2240577,3.15645 0.1116403,1.631468 0.2148718,3.040461 0.2294065,3.131098 0.025221,0.157298 0.036695,0.164795 0.2518307,0.164795 h 0.225414 l 0.0048,-0.240854 z m 1.279895,-0.02535 c 0.01464,-0.146415 0.05104,-1.486955 0.08081,-2.978981 0.02976,-1.492024 0.06728,-2.866791 0.08332,-3.055038 l 0.02917,-0.342266 H 11.309269 10.81979 l 0.02839,0.266207 c 0.0156,0.146414 0.05199,1.521181 0.08079,3.055038 0.02881,1.533858 0.06486,2.908625 0.0801,3.05504 l 0.02767,0.266206 h 0.271021 0.27102 z M 12.88286,64.33336 c 0.06014,-0.83665 0.157677,-2.228531 0.216754,-3.093069 0.05905,-0.864537 0.11981,-1.668862 0.134954,-1.787388 l 0.02755,-0.2155 H 12.85947 12.456825 l -0.02898,0.722562 c -0.06005,1.49723 -0.13474,4.352396 -0.134059,5.124087 l 5.98e-4,0.801399 0.239512,-0.01546 0.239507,-0.01546 0.109346,-1.52118 z m 3.174542,2.150925 c -0.428465,-0.125609 -0.907998,-0.615831 -1.028824,-1.051754 -0.03328,-0.120031 -0.05217,-1.731042 -0.05307,-4.521829 -0.0012,-4.124319 -0.006,-4.345526 -0.09597,-4.544077 -0.05199,-0.114791 -0.180613,-0.274515 -0.285769,-0.354942 -0.173564,-0.132751 -0.234708,-0.147852 -0.663317,-0.163803 l -0.472128,-0.01757 v 0.420082 c 0,0.351481 -0.01846,0.447051 -0.112925,0.585228 -0.06211,0.09083 -0.163283,0.188137 -0.224828,0.216239 -0.06682,0.0305 -0.794088,0.05439 -1.804964,0.05928 -1.5552261,0.0075 -1.7057554,6.58e-4 -1.8489814,-0.08411 C 9.2424517,56.89434 9.1572513,56.675486 9.1572513,56.232349 v -0.378366 l -0.3256486,-0.0262 C 8.2566966,55.781541 7.7910045,55.466274 7.5358991,54.950602 l -0.1243702,-0.25139 -0.014703,-2.134946 c -0.014343,-2.086713 -0.012192,-2.141607 0.095384,-2.429774 0.132791,-0.355657 0.4254644,-0.687547 0.7457014,-0.845627 l 0.2362258,-0.116612 3.2384459,-0.02535 3.238449,-0.02535 0.01303,-3.333922 0.01303,-3.333922 h -0.397327 c -0.585131,0 -0.579006,0.01155 -0.570633,-1.075775 0.0064,-0.820372 0.01344,-0.882008 0.11167,-0.963988 0.09702,-0.081 0.357555,-0.0877 3.467551,-0.08917 l 3.36264,-0.0016 0.124627,0.12489 c 0.122374,0.122629 0.124633,0.14005 0.124633,0.96187 0,0.795719 -0.0053,0.842075 -0.110743,0.940366 -0.09051,0.0845 -0.178332,0.103388 -0.480705,0.103388 l -0.369967,10e-7 v 3.345723 3.34572 l 3.630606,-7.2e-4 c 2.027923,-4.04e-4 3.698918,0.01956 3.785361,0.04526 0.273967,0.08144 0.452855,0.197723 0.673984,0.438118 0.37344,0.405974 0.382518,0.448004 0.410972,1.902308 l 0.02528,1.293004 2.074634,0.01147 c 2.466488,0.01364 2.251867,-0.05468 2.251495,0.716703 -5.31e-4,1.108854 -0.170687,3.114369 -0.356962,4.207288 -0.577965,3.391086 -1.838665,5.692741 -3.672453,6.704794 l -0.310501,0.171361 -0.02241,0.407091 c -0.03532,0.641666 -0.298113,1.054849 -0.863361,1.357518 l -0.213647,0.1144 -5.717885,0.0086 c -3.34691,0.0051 -5.783664,-0.01076 -5.876528,-0.03797 z m 11.571135,-0.721153 c 0.150606,-0.07981 0.257226,-0.186647 0.336863,-0.337566 l 0.116523,-0.2208 v -7.35912 -7.35901 l -0.113852,-0.226241 c -0.0773,-0.153611 -0.180955,-0.263022 -0.322872,-0.340797 l -0.209015,-0.114552 -9.372794,4.06e-4 -9.372796,4.06e-4 -0.1992794,0.112234 c -0.1096023,0.06174 -0.2493858,0.192965 -0.3106267,0.291636 -0.1089927,0.175599 -0.1116882,0.22134 -0.127209,2.156939 -0.010399,1.294236 0.00299,2.040865 0.037951,2.160817 0.075596,0.257603 0.2393335,0.447699 0.479958,0.557212 0.1928246,0.08776 0.3900001,0.094 3.0015261,0.09505 2.634807,0.0011 2.809852,0.0066 3.051499,0.09872 0.372166,0.141706 0.67546,0.412732 0.841851,0.752282 l 0.142598,0.290956 0.02528,4.487484 c 0.01846,3.280386 0.04112,4.514764 0.0842,4.588897 0.08757,0.150791 0.328634,0.367599 0.47241,0.424879 0.08095,0.03226 2.123803,0.05156 5.671977,0.05361 l 5.545471,0.0032 z m -5.976178,-1.143347 c -0.09171,-0.07441 -0.120348,-0.158485 -0.138188,-0.405648 -0.01769,-0.244867 -0.04022,-0.311886 -0.104976,-0.312274 -0.128513,-7.79e-4 -0.60501,-0.237552 -0.817612,-0.406288 -0.242512,-0.192473 -0.515133,-0.604704 -0.628,-0.949602 l -0.08711,-0.266208 h -0.291692 c -0.329435,0 -0.459184,-0.09068 -0.459184,-0.320906 0,-0.225482 0.160809,-0.338273 0.482294,-0.338273 0.180507,0 0.286332,-0.02251 0.298029,-0.06338 0.209212,-0.731198 0.649217,-1.226168 1.302037,-1.464694 L 21.50383,59.984407 V 59.76541 c 0,-0.40383 0.169349,-0.585493 0.474304,-0.508795 0.152764,0.03842 0.25088,0.271157 0.22573,0.535428 -0.01817,0.190646 -0.01004,0.204942 0.133682,0.236045 0.604274,0.130762 1.234594,0.733027 1.416524,1.353473 0.05856,0.199758 0.0755,0.214554 0.259778,0.227189 0.428184,0.02936 0.576628,0.122689 0.576628,0.362544 0,0.210561 -0.135499,0.300469 -0.479641,0.318264 -0.291825,0.0151 -0.301901,0.02034 -0.332985,0.173627 -0.05761,0.284052 -0.266293,0.648546 -0.512984,0.896004 -0.229998,0.230706 -0.780908,0.543045 -0.957992,0.543131 -0.06484,3.1e-5 -0.08728,0.0667 -0.104976,0.311818 -0.02367,0.327612 -0.141982,0.499519 -0.343862,0.499519 -0.04948,0 -0.142048,-0.04224 -0.205674,-0.09387 z m 0.593905,-1.401723 c 0.341608,-0.101658 0.680505,-0.407353 0.825165,-0.744331 0.09392,-0.21878 0.109847,-0.328297 0.0894,-0.614663 -0.02146,-0.300578 -0.05182,-0.387611 -0.22108,-0.633491 -0.268648,-0.390289 -0.606959,-0.568844 -1.074844,-0.567291 -0.537649,0.0018 -0.964369,0.264756 -1.19919,0.739022 -0.140661,0.28408 -0.133897,0.884699 0.01309,1.16134 0.158388,0.298129 0.428286,0.53332 0.733073,0.638806 0.330158,0.114266 0.505148,0.118588 0.834399,0.02061 z m -1.316502,-1.031018 c -0.173986,-0.192649 -0.08545,-0.629548 0.185014,-0.913043 0.376261,-0.394382 0.922526,-0.462826 1.04829,-0.131345 0.08042,0.211977 -0.03359,0.385091 -0.305033,0.46324 -0.25063,0.07215 -0.354207,0.175658 -0.354207,0.35398 0,0.269084 -0.395032,0.425406 -0.574064,0.227168 z m 0.497733,-4.109027 c -0.111563,-0.05079 -0.275689,-0.175482 -0.364727,-0.277103 -0.579089,-0.660915 -0.08485,-1.702054 0.809931,-1.706165 0.541683,-0.0025 1.047382,0.498856 1.047382,1.03836 0,0.359298 -0.262027,0.761885 -0.612487,0.941049 -0.242555,0.124001 -0.612629,0.125623 -0.880099,0.0039 z m 0.629327,-0.61338 c 0.05002,-0.02682 0.118622,-0.115751 0.15246,-0.197618 0.140973,-0.341046 -0.272557,-0.6672 -0.564316,-0.445077 -0.151211,0.115123 -0.201132,0.323353 -0.116732,0.486908 0.10347,0.200507 0.324007,0.265503 0.528588,0.155787 z M 21.427925,54.957793 C 20.9755,54.75798 20.729898,54.246191 20.848567,53.750507 c 0.07438,-0.310686 0.383587,-0.651729 0.679679,-0.749653 0.276328,-0.09138 0.665228,-0.03227 0.911369,0.13854 0.296678,0.205875 0.497493,0.61922 0.460809,0.948494 -0.03831,0.343676 -0.252435,0.675096 -0.53169,0.822892 -0.255703,0.135325 -0.691538,0.157104 -0.940809,0.04701 z m 0.685936,-0.681677 c 0.166786,-0.135332 0.156148,-0.394339 -0.02253,-0.548339 -0.173885,-0.14988 -0.29262,-0.149989 -0.466135,-4.06e-4 -0.378781,0.326492 0.09998,0.86415 0.488654,0.548766 z m -13.176469,7.8e-4 c -0.073683,-0.08159 -0.083748,-0.261525 -0.083748,-1.497848 0,-1.574096 0.010219,-1.627142 0.3758628,-1.948837 0.2645243,-0.23274 0.4871356,-0.272319 1.4297972,-0.254208 0.75668,0.01454 0.840584,0.02515 0.905662,0.114449 0.09951,0.136574 0.08961,0.351334 -0.0208,0.45148 -0.07784,0.07059 -0.218822,0.08392 -0.888025,0.08392 -0.8258933,0 -1.0421338,0.04476 -1.1132418,0.230448 -0.017272,0.04514 -0.031436,0.673476 -0.031436,1.396291 0,1.246603 -0.00538,1.319427 -0.1011995,1.415622 -0.126432,0.126697 -0.362368,0.13103 -0.4728609,0.0087 z m 20.100742,9.431789 c 1.710087,-1.150896 2.82361,-3.70478 3.216366,-7.376771 0.06222,-0.581681 0.177692,-2.348093 0.178827,-2.735558 2.4e-4,-0.0829 -0.121322,-0.08873 -1.846668,-0.08873 h -1.846923 v 5.172015 c 0,2.844609 0.01936,5.172018 0.04298,5.172018 0.02367,0 0.138576,-0.06434 0.255416,-0.142969 z M 12.800504,56.169574 V 55.839986 H 11.307781 9.8150568 v 0.30347 0.303471 l 1.4800712,0.01424 c 0.814042,0.0078 1.485767,0.01958 1.492724,0.02611 0.007,0.0065 0.01267,-0.136435 0.01267,-0.317709 z m 6.64611,-7.052123 c 0.07679,-0.02954 0.08379,-0.308746 0.08379,-3.348039 v -3.315821 h -1.948127 -1.948129 l -0.0048,3.080392 c -0.0048,3.159469 -0.0012,3.51122 0.03479,3.569846 0.02677,0.04345 3.670679,0.05658 3.782391,0.01362 z m 1.095801,-7.728687 v -0.405648 h -2.934843 -2.934846 v 0.405648 0.405649 h 2.934846 2.934843 z"
       id="path24"
       sodipodi:nodetypes="csscssscccscscsccccccccccsscccccscccccccccccccccccccccccccccsscscsccscsccccscccccsccccsscscccccsccsssscsscccccccccsscccccccsccccccscccsccsscssscscsscccssscsscssscssccscsccsssssscccssccscsssssssccssccccccscsccscscccsssscsssscccccccccccscccccccccccccccc" />
    <path
       style="fill:#ffffff;fill-opacity:1;stroke-width:0.0391733"
       d="M 13.038568,32.485117 C 12.207508,32.390808 11.164137,32.075396 10.341657,31.669841 8.2964122,30.66137 6.752047,28.881439 6.0471184,26.720255 5.8750417,26.192713 5.7323148,25.588505 5.756127,25.488416 c 0.00875,-0.03666 0.1958085,0.03769 0.6193523,0.246124 2.4623009,1.211747 2.4330625,1.198268 2.5861484,1.192136 0.082711,-0.003 0.2775579,-0.06738 0.4329802,-0.142375 0.2617082,-0.126274 0.9563681,-0.454196 3.0576791,-1.443408 0.451435,-0.212518 0.840181,-0.386617 0.863882,-0.386891 0.04476,-5.56e-4 0.933898,0.428895 3.005601,1.451519 0.926385,0.457278 1.245082,0.597194 1.353623,0.594292 0.09647,-0.0023 0.572635,-0.206957 1.485262,-0.637443 0.738804,-0.348503 1.475199,-0.69536 1.63643,-0.770799 0.161231,-0.07543 0.508539,-0.240044 0.771796,-0.365794 l 0.478651,-0.228639 1.280211,0.630763 c 2.716067,1.338225 2.945316,1.4457 3.083849,1.4457 0.09068,0 0.43957,-0.144102 1.06137,-0.438361 1.521926,-0.720234 1.980097,-0.930753 1.994406,-0.916379 0.02329,0.02339 -0.07582,0.45539 -0.190455,0.829975 -0.543964,1.777679 -1.65405,3.320727 -3.17254,4.409902 -1.200883,0.861374 -2.522325,1.367846 -3.997914,1.532295 -0.44219,0.04924 -8.628616,0.04393 -9.067891,-0.0059 z m 12.214287,-7.05413 c -2.376459,-1.190681 -3.031174,-1.49827 -3.189206,-1.49827 -0.155269,0 -0.514497,0.161149 -3.244405,1.455385 L 17.681747,25.92738 17.37307,25.774475 C 14.062302,24.134476 13.472086,23.8542 13.3293,23.8542 c -0.106245,0 -0.320327,0.08133 -0.72342,0.274826 -0.314891,0.151157 -0.57814,0.274827 -0.584996,0.274827 -0.0066,0 -0.341352,0.159007 -0.743324,0.353352 -0.401965,0.194338 -0.736387,0.353347 -0.743162,0.353347 -0.0066,0 -0.364463,0.167477 -0.794856,0.372177 L 8.9569978,25.854904 7.5973296,25.185684 C 6.8495093,24.81761 6.1001986,24.452417 5.9322065,24.374127 l -0.3054477,-0.142329 0.012314,-0.63369 c 0.012019,-0.61878 0.014821,-0.63694 0.1175826,-0.772183 0.057868,-0.07618 0.1659419,-0.16742 0.2400923,-0.202764 0.1238843,-0.05902 1.0694434,-0.06435 11.6591433,-0.06524 l 11.524324,-7.41e-4 0.152682,0.10877 c 0.277726,0.19787 0.30022,0.283839 0.288403,1.102357 l -0.0105,0.718746 -0.938054,0.443484 c -0.515934,0.24391 -1.224357,0.578586 -1.574267,0.743717 -0.349918,0.165133 -0.666513,0.299168 -0.703544,0.297856 -0.03701,-0.0015 -0.551017,-0.244722 -1.142192,-0.540913 z m -7.744375,-3.929805 -2.157065,-0.01693 0.04584,-0.271363 c 0.02519,-0.149242 0.266833,-1.222839 0.53687,-2.385759 0.270024,-1.162933 0.75565,-2.477055 1.079169,-3.878191 0.366348,-1.586606 0.60717,-2.501294 0.638461,-2.425013 0.05735,0.139983 0.288423,0.337109 0.982442,3.387876 0.268564,1.180554 0.666429,2.906867 0.884136,3.836275 0.217709,0.929408 0.395828,1.697323 0.395828,1.706481 0,0.05294 -0.463917,0.06189 -2.40574,0.04664 z m 4.251267,-0.303402 c -0.04222,-0.176204 -0.267585,-1.156513 -0.500757,-2.178484 -0.233185,-1.021958 -0.580866,-2.521261 -0.772628,-3.331788 -0.541013,-2.286623 -0.920586,-3.16252 -0.970585,-3.45989 -0.02505,-0.149108 -0.08148,-0.295583 -0.125564,-0.325506 -0.06539,-0.04448 -0.464882,-0.184978 -1.441576,-0.506918 -0.05266,-0.01741 -0.128512,0.155428 -0.20834,0.474045 l -0.125565,0.501336 -0.137637,-0.580541 -0.137627,-0.58053 -0.630312,-0.201668 -0.630314,-0.201667 -0.03699,0.14147 c -0.07736,0.295854 -0.69997,2.186838 -1.09939,3.938954 -0.22895,1.004349 -0.665727,2.900111 -0.970622,4.212805 l -0.554359,2.386715 h -2.080159 c -2.0175519,0 -2.0801737,-0.0037 -2.0801737,-0.125398 0,-0.206549 0.4647362,-1.772793 0.7780177,-2.622051 1.042075,-2.824978 2.774201,-5.015561 4.929916,-7.68158 l 0.388561,-0.480547 -0.224138,-0.07384 C 14.905048,10.428733 14.090823,10.167043 11.566164,9.3572419 9.7548906,8.7762658 9.4711044,8.5716741 9.4705685,7.8464227 9.4703676,7.4297328 9.6665402,7.0509069 10.313483,6.2195709 c 1.510604,-1.9411538 4.039739,-3.3644039 6.71482,-3.7787004 0.733591,-0.1136019 2.409652,-0.1294216 3.200734,-0.030213 0.646743,0.081092 0.879405,-0.00605 1.077588,-0.4020418 0.249374,-0.4987123 0.771449,-0.7546428 1.362874,-0.6680878 0.354353,0.051846 0.585824,0.2217774 0.790344,0.5801915 0.161651,0.2832915 0.166919,0.3254088 0.08858,0.7085734 -0.118596,0.5805901 -0.06447,0.6631449 0.749781,1.1433545 3.050099,1.7988011 4.781666,4.654221 4.780621,7.8834367 -2.01e-4,0.90571 -0.133201,1.831842 -0.305669,2.131026 -0.21338,0.370005 -0.733646,0.665804 -1.171031,0.665804 -0.111491,0 -1.127585,-0.299135 -2.258012,-0.664728 C 24.2137,13.42258 22.995621,13.032832 22.637286,12.922068 22.278953,12.811246 21.869588,12.676894 21.727568,12.62338 21.47112,12.5267 21.469927,12.52706 21.551899,12.6652 c 0.04543,0.0765 0.218351,0.329819 0.384345,0.562957 1.155876,1.623372 2.546193,3.448158 3.248254,5.310613 0.255738,0.678446 0.839606,2.667747 0.839606,2.860653 0,0.06562 -0.437625,0.08664 -2.093842,0.100923 l -2.093838,0.01788 z"
       id="path846"
       sodipodi:nodetypes="ssscccsscscssscsssscscsscsscssssssscsccsccccscccscccccccscssscccccsccccccccssscsscsccscsscccsccccscccccssccc" />
  </g>
</svg>
